<svg xmlns="http://www.w3.org/2000/svg" xmlns:xlink="http://www.w3.org/1999/xlink" width="266.726" height="107.141" viewBox="0 0 266.726 107.141">
  <defs>
    <clipPath id="clip-path">
      <rect id="SVGID" width="266.726" height="107.141" fill="none"></rect>
    </clipPath>
  </defs>
  <g id="logo_accent_beauté" data-name="logo accent beauté" transform="translate(-195.602 -200.858)">
    <g id="Group_3574" data-name="Group 3574" transform="translate(195.602 200.858)" clip-path="url(#clip-path)">
      <path id="Path_1172" data-name="Path 1172" d="M222.914,284.151c-.56-.029-1.223-.029-1.984-.029-1.7,0-3.276.069-4.683.208l.467-.842a90.342,90.342,0,0,1,7.6-11.564,78.669,78.669,0,0,0-1.413,12.227Zm4.124.715-.208-.069a8.649,8.649,0,0,0-1.926-.467,78.111,78.111,0,0,1,1.857-14.321,3.931,3.931,0,0,0,.162-1.009.78.78,0,0,0-.819-.744,1.74,1.74,0,0,0-.8.208c-2.693,1.465-6.327,7.5-10.116,14.079l-1.177,2.013c-6.569.929-10.3,3.063-11.483,4.187a1.108,1.108,0,0,0-.346.825.89.89,0,0,0,.94.9,1.32,1.32,0,0,0,.969-.456l.04-.029c.894-.692,3.247-2.515,8.7-3.478-4.994,8.179-8.721,12.158-11.379,12.158a2.178,2.178,0,0,1-1.615-.6l-.144-.121a1.317,1.317,0,0,0-.958-.45,1.094,1.094,0,0,0-1.056,1.015c0,.917,1.413,1.99,3.23,1.99,3.8,0,8.6-4.833,14.264-14.356a50.762,50.762,0,0,1,5.756-.3c.756,0,1.378.034,1.938.069v1.009a44.232,44.232,0,0,0,.744,8.271.975.975,0,0,0,.894.8.923.923,0,0,0,.975-.963,42.2,42.2,0,0,1-.617-7.6v-1.3a5.221,5.221,0,0,1,1.148.282,1.719,1.719,0,0,0,.64.167.9.9,0,0,0,.9-.9.793.793,0,0,0-.508-.813Z" transform="translate(-196.532 -230.949)" fill="#281411"></path>
      <path id="Path_1173" data-name="Path 1173" d="M277.844,291.5c0-3.928,2.578-6.8,3.922-6.8.392,0,.421.5.421.657,0,1.477-1.817,4.211-4.343,6.564Zm32.968-10.97a13.847,13.847,0,0,0-3.068.41c-.306.063-.606.132-.912.184a49.883,49.883,0,0,1,1.1-5.185c.121-.484.208-.8.266-1a2.2,2.2,0,0,0,.127-.658.831.831,0,0,0-.94-.825,1.236,1.236,0,0,0-1.171,1.067,68.494,68.494,0,0,0-1.35,6.782,2.586,2.586,0,0,1-.853-.3,1.827,1.827,0,0,0-.71-.242.826.826,0,0,0-.859.784c0,.969,1.545,1.326,2.243,1.4-.1,1.3-.144,2.573-.144,4.205,0,.859.011,1.7.04,2.491l-.11.3c-.542,1.488-1.823,4.977-3.541,4.977-1.528,0-1.817-1.321-2.371-6.967-.15-1.575-.582-3.374-2.572-3.374-2.353,0-4.545,3.634-6.079,6.673.035-.236.075-.479.092-.71.023-.208.046-.4.069-.6a1.679,1.679,0,0,0,.162-.617.615.615,0,0,0-.064-.265c.075-.738.11-1.286.11-1.713a8.366,8.366,0,0,0-.358-2.688,1.06,1.06,0,0,0-.928-.738.914.914,0,0,0-.975.86,1.391,1.391,0,0,0,.1.444l.035.1a5.492,5.492,0,0,1,.294,1.95v.444c0,.536.012,1.147-.034,1.9-.577,1.032-3.426,5.825-6.656,5.825-1.742,0-2.889-.571-3.5-1.754,3.345-2.815,5.762-6.3,5.762-8.311a2.182,2.182,0,0,0-2.261-2.3c-2.3,0-5.721,3.547-5.721,8.443a9.025,9.025,0,0,0,.184,1.817c-1.967,1.557-3.818,2.843-6.436,2.843-2.2,0-3.455-1.16-3.455-3.184,0-4.407,3.824-8.277,6.137-8.277a1.571,1.571,0,0,1,1.315.548c.2.2.346.346.594.346a.925.925,0,0,0,.94-.819c0-.583-.756-1.719-2.491-1.719-2.6,0-6.379,2.687-7.832,6.667-1.344,1.973-4.949,6.044-7.527,6.044-1.909,0-2.832-1.015-2.832-3.109,0-4.585,3.495-8.08,5.242-8.08a.825.825,0,0,1,.848.928,2.3,2.3,0,0,1-.692,1.454l-.018.017a1.647,1.647,0,0,0-.461,1.056,1.128,1.128,0,0,0,1.1,1.015c.692,0,1.073-.479,1.43-1.2a5.4,5.4,0,0,0,.479-2.232,2.314,2.314,0,0,0-2.532-2.457c-1.465,0-3.4,1.056-4.914,2.682a10.009,10.009,0,0,0-2.785,6.812A4.418,4.418,0,0,0,257,297.414c2.866,0,5.773-2.693,7.382-4.476v.04c0,2.953,1.956,4.787,5.1,4.787,2.682,0,5.479-1.62,7.395-3.016a5.372,5.372,0,0,0,4.579,2.278c2.815,0,5.035-1.926,6.477-3.691-.1.531-.208,1.067-.334,1.638-.069.288-.144.542-.208.773a4.193,4.193,0,0,0-.219,1.078.89.89,0,0,0,.94,1.015.955.955,0,0,0,1.05-.871,14.878,14.878,0,0,1,1.234-3.317c2.232-4.822,4.2-7.59,5.41-7.59.565,0,.744,1.124.854,2.336.5,5.623,1.032,8.276,3.657,8.276,2.03,0,3.547-1.845,4.51-3.53a27.766,27.766,0,0,0,.929,5.035l.04.156c.173.686.542,1.067,1.049,1.067a.9.9,0,0,0,.9-.9,1.211,1.211,0,0,0-.127-.479c-.034-.081-.069-.179-.115-.306-.179-.427-1.079-3.962-1.079-10.492,0-1.493.058-2.895.185-4.406.462-.069.906-.162,1.338-.248a13.187,13.187,0,0,1,2.752-.358,3.487,3.487,0,0,1,1.482.253,1.335,1.335,0,0,0,.536.133.82.82,0,0,0,.784-.86C313.5,281.051,312.346,280.532,310.812,280.532Z" transform="translate(-220.929 -233.271)" fill="#281411"></path>
      <path id="Path_1174" data-name="Path 1174" d="M522.863,296.779c-1.915,0-2.6-.842-2.6-1.627,0-3.247,6.137-7.907,12.43-9.459a4.665,4.665,0,0,1,.161,1.176C532.852,291.236,528.152,296.779,522.863,296.779Zm-1.511-13.024h-.063c.121-.294,1.315-.859,3.5-1.136A6.888,6.888,0,0,1,521.352,283.755Zm15.55,1.367c.536,0,.94-.317.94-.744,0-.49-.392-.819-.974-.819a20.688,20.688,0,0,0-3.092.225,6.756,6.756,0,0,0-4.21-2.584c2.2-2.226,4.7-5.992,4.7-9.534,0-2.878-1.747-4.672-4.551-4.672-6.425,0-10.48,9.073-12.447,15.048.023-.848.052-2.244.052-3.847,0-5.531-1.534-7.221-1.7-7.389a1.532,1.532,0,0,0-1.142-.582,1.011,1.011,0,0,0-.975,1.015,1.239,1.239,0,0,0,.548.946c.456.416,1.4,1.28,1.4,6.483a132.48,132.48,0,0,1-.928,14.281,2.443,2.443,0,0,0-.04.5.9.9,0,0,0,.94,1.015c.375,0,.842-.179.975-1.038a70.142,70.142,0,0,1,1.626-7.336,52.227,52.227,0,0,1,4.487-11.368c2.278-3.98,4.707-6,7.215-6,1.627,0,2.636,1.113,2.636,2.913,0,3.7-2.636,7.232-5.122,9.32a3.53,3.53,0,0,0-.547-.029,13.881,13.881,0,0,0-5.3.958c-1.384.588-2.174,1.344-2.174,2.082,0,.865.859,1.442,2.145,1.442,1.9,0,4.349-1.05,6.725-2.873a6.673,6.673,0,0,1,3.76,1.719c-6.944,1.765-13.45,7-13.45,10.872,0,1.638,1.194,3.385,4.557,3.385,6.281,0,11.864-6.482,11.864-11.593a5.135,5.135,0,0,0-.225-1.61h.075a22.236,22.236,0,0,1,2.244-.179Z" transform="translate(-337.536 -230.386)" fill="#281411"></path>
      <path id="Path_1175" data-name="Path 1175" d="M656.242,283.179a.934.934,0,0,0,.658-.334l3.732-3.576a.955.955,0,0,0-.04-1.3.9.9,0,0,0-1.3-.075l-3.489,3.8a.971.971,0,0,0-.358.686.7.7,0,0,0,.2.5.861.861,0,0,0,.6.294Z" transform="translate(-400.908 -235.139)" fill="#281411"></path>
      <path id="Path_1176" data-name="Path 1176" d="M614.015,285.208c.369,0,.577.265.577.732,0,2.3-2.341,5.277-4.072,5.791.057-4.055,2.278-6.529,3.495-6.529Zm-37.917,2.97c-.242.525-.5,1.073-.767,1.552-1.776,3.2-3.622,6.316-4.989,6.316-.83,0-1-.8-1-1.471,0-4.528,4.487-9.13,7-9.13.595,0,1.067.242,1.148.473a6.064,6.064,0,0,0-1.384,2.267Zm-14.073-2.97c.369,0,.577.265.577.732,0,2.3-2.342,5.277-4.072,5.791.058-4.055,2.279-6.529,3.5-6.529Zm59.459,3.916c-.381,0-.646.208-.888.692-1.119,2.238-3.437,6-6.344,6a3.352,3.352,0,0,1-3.535-2.613,2.516,2.516,0,0,0,.312.017c2.336,0,5.294-4.343,5.294-7a2.2,2.2,0,0,0-2.3-2.491c-1.8,0-4.822,2.521-5.468,6.466l-.219.432c-.923,1.823-2.85,5.624-4.424,5.624-1.338,0-2.019-1.344-2.019-4a38.474,38.474,0,0,1,1.125-8.721c.08-.312.184-.4.34-.455a9.8,9.8,0,0,1,2.809-.421,3.838,3.838,0,0,1,1.552.271,1.353,1.353,0,0,0,.473.115.916.916,0,0,0,.825-.9c0-.727-.917-1.09-2.728-1.09a11.69,11.69,0,0,0-2.873.381,40.765,40.765,0,0,1,1.517-5.52,3.388,3.388,0,0,0,.312-1.078,1.057,1.057,0,0,0-1.056-.94c-.773,0-1.038.8-1.125,1.056a54.935,54.935,0,0,0-1.592,6.039l-.086.386c-.075.34-.214.369-.346.369a3.072,3.072,0,0,1-1.558-.41,1.657,1.657,0,0,0-.779-.254.953.953,0,0,0-.859.9.926.926,0,0,0,.479.8,4.363,4.363,0,0,0,2.439.606c.15,0,.179.023.19.035s.023.034,0,.138c-.058.34-.11.675-.167,1.015-.3,1.782-.606,3.622-.75,5.462-1.269,2.388-3.109,5.162-4.135,5.162-.923,0-1.4-1.269-1.4-3.766a21.518,21.518,0,0,1,.155-2.63c.023-.242.052-.5.081-.779a9.32,9.32,0,0,1,.323-1.649,3.116,3.116,0,0,0,.144-.738.855.855,0,0,0-.9-.819c-.715,0-.951.277-2.128,2.474-2.382,4.418-5.566,8.877-7.319,8.877-.715,0-1.125-.595-1.125-1.627,0-2.878,1.938-6.488,3.368-9.159l.11-.2a2.094,2.094,0,0,0,.375-1.061.906.906,0,0,0-1.015-.9c-.634,0-.859.548-1.154,1.24l-.051.116c-.329.784-.738,1.6-1.165,2.468-.554,1.113-1.13,2.267-1.575,3.432-1.113,1.863-2.186,2.93-2.935,2.93-1.01,0-1.16-1.6-1.16-2.561a11.5,11.5,0,0,1,.7-3.385,5.716,5.716,0,0,0,.347-1.361.842.842,0,0,0-.79-.895c-.121-.721-.987-1.447-2.44-1.447-3.091,0-6.719,3.1-8.253,7.043-1.281,2.284-3.334,5.012-5.82,5.012a3.351,3.351,0,0,1-3.535-2.613,2.5,2.5,0,0,0,.311.018c2.336,0,5.3-4.343,5.3-7a2.2,2.2,0,0,0-2.3-2.491c-1.978,0-5.606,3.057-5.606,8.052a5.67,5.67,0,0,0,1.725,4.389,5.319,5.319,0,0,0,3.57,1.292,7.84,7.84,0,0,0,5.64-2.82c.081,2.221,1.459,3.017,2.641,3.017,2.278,0,4.435-3.242,5.727-5.174a11.5,11.5,0,0,1,.819-1.148,3.111,3.111,0,0,1,.115.543c.19,1.113.542,3.178,2.78,3.178a3.52,3.52,0,0,0,2.319-1.119c-.018.219-.029.421-.029.611,0,2.25,1.471,3.27,2.843,3.27,2.757,0,5.641-3.916,8.127-7.884-.04.542-.081,1.188-.081,1.777,0,3.189,1.165,5.018,3.2,5.018,1.552,0,3.091-1.84,4.164-3.513.305,3.415,2.145,4.643,3.807,4.643,1.961,0,3.691-2.249,4.839-4.25a5,5,0,0,0,5.076,3.864c5.012,0,7.988-6.1,8.317-6.8a2.359,2.359,0,0,0,.242-.825.758.758,0,0,0-.784-.7Z" transform="translate(-356.707 -233.466)" fill="#281411"></path>
      <path id="Path_1177" data-name="Path 1177" d="M419.042,278.4a26.286,26.286,0,0,0-4.648,9.811,23.939,23.939,0,0,0-8.087-12.014,15,15,0,0,0,2.93-2.486,23.179,23.179,0,0,0,4.672-8.825,21.574,21.574,0,0,0,7.734,11.011,15.744,15.744,0,0,0-2.607,2.509Zm18.566,1.3a17.7,17.7,0,0,0-1.99.45,30.977,30.977,0,0,1-10.053-3.582,10.938,10.938,0,0,1,6.581-1.136c2.89.375,1.978-1.828-.7-2.117a13.351,13.351,0,0,0-8.265,1.552,21.432,21.432,0,0,1-7.636-16.23c.029-1.419-2.555-2.2-2.763-.035A28.454,28.454,0,0,1,408,271.69a17.24,17.24,0,0,1-3.155,3.489,29.333,29.333,0,0,0-7.043-3.189c-.917-.288-1.863-.543-2.82-.756a19.611,19.611,0,0,0,9.124-6.685,14.391,14.391,0,0,0,3.068-6.99,24.524,24.524,0,0,0-.265-6.333c-.386-2.965-3.08-2.549-2.763-.115a26.725,26.725,0,0,1,.323,5.756,13.752,13.752,0,0,1-2.826,7.146,19.276,19.276,0,0,1-9,6.8,18.419,18.419,0,0,0-2.174-.167c-.681-.006-2.094.4-1.73,1.275.409.986,2.324.906,2.964.911a25.18,25.18,0,0,1,11.76,3.368,8.416,8.416,0,0,1-6.1,1.517c-.444-.081-1.984-.467-2.353-.15s.606.634.952.7a14.082,14.082,0,0,0,8.859-1.223c.092.064.19.116.283.179a19.673,19.673,0,0,1,8.063,15.994c-.075,3.166,1.932,3.726,2.255,1.28a29.181,29.181,0,0,1,5.191-13.629,15.477,15.477,0,0,1,3.535-3.426,29.956,29.956,0,0,0,9.891,3.259,21.753,21.753,0,0,0-9.291,7.077,15.352,15.352,0,0,0-3.294,7.406,19.283,19.283,0,0,0,.242,6.564c.611,2.785,3.109,1.741,2.474-1.073a18.871,18.871,0,0,1-.346-5.468,12.786,12.786,0,0,1,2.6-6.789,16.767,16.767,0,0,1,10.7-6.846c.288-.046,2.186-.444,2.076-1.188-.138-.923-1.349-.71-1.592-.669Z" transform="translate(-281.806 -222.416)" fill="#281411"></path>
      <path id="Path_1178" data-name="Path 1178" d="M354.686,247.9l4.989,3.276a.328.328,0,0,0,.2.064h.046a.3.3,0,0,0,.208-.156l1.863-2.832a.336.336,0,0,0,.058-.248.352.352,0,0,0-.15-.208l-.162-.1a.33.33,0,0,0-.248-.058.347.347,0,0,0-.208.15l-1.517,2.307-4.551-2.993a.343.343,0,0,0-.242-.064.3.3,0,0,0-.208.156l-.161.248a.317.317,0,0,0-.058.242.3.3,0,0,0,.156.208Z" transform="translate(-266.562 -221.475)" fill="#823224"></path>
      <path id="Path_1179" data-name="Path 1179" d="M364.889,241.874a.32.32,0,0,0,.214.081h.029a.351.351,0,0,0,.219-.127l1.909-2.325a.325.325,0,0,0,.08-.242.343.343,0,0,0-.127-.219l-.15-.121a.352.352,0,0,0-.236-.086.314.314,0,0,0-.225.132l-1.511,1.84-1.6-1.309,1.494-1.823a.3.3,0,0,0,.081-.242.323.323,0,0,0-.127-.219l-.15-.121a.319.319,0,0,0-.242-.081.324.324,0,0,0-.219.127l-1.493,1.823-1.563-1.28,1.505-1.84a.3.3,0,0,0,.081-.242.349.349,0,0,0-.127-.219l-.15-.121a.329.329,0,0,0-.236-.086.314.314,0,0,0-.225.133l-1.9,2.324a.324.324,0,0,0-.086.236.3.3,0,0,0,.132.225l4.614,3.783Z" transform="translate(-269.06 -216.178)" fill="#823224"></path>
      <path id="Path_1180" data-name="Path 1180" d="M371.089,227.521l.906-.807a1.1,1.1,0,0,1,.71-.323h.029a.843.843,0,0,1,.617.306l.121.138a.95.95,0,0,1,.26.692,1.03,1.03,0,0,1-.386.7l-.906.808-1.344-1.511ZM374,232.228a.29.29,0,0,0,.225.115h.018a.322.322,0,0,0,.219-.092l.225-.2a.3.3,0,0,0,.115-.225.333.333,0,0,0-.092-.236l-1.713-1.932.906-.808a2.154,2.154,0,0,0,.617-.871,1.749,1.749,0,0,0,.081-.951,1.8,1.8,0,0,0-.421-.842l-.121-.138a1.624,1.624,0,0,0-.761-.49,1.709,1.709,0,0,0-.934-.012,2.311,2.311,0,0,0-.929.519l-1.373,1.223a.317.317,0,0,0-.121.219.332.332,0,0,0,.092.242l3.963,4.459Z" transform="translate(-273.437 -211.856)" fill="#823224"></path>
      <path id="Path_1181" data-name="Path 1181" d="M382.042,225.025a1.578,1.578,0,0,1-.888-.663l-1.326-1.88a1.561,1.561,0,0,1-.323-1.049,1.145,1.145,0,0,1,.519-.836,1.178,1.178,0,0,1,.7-.248,1.02,1.02,0,0,1,.26.034,1.509,1.509,0,0,1,.877.664l1.326,1.88a1.565,1.565,0,0,1,.329,1.055,1.257,1.257,0,0,1-1.476,1.044Zm-1.661-.115a2.411,2.411,0,0,0,.917.8,2.056,2.056,0,0,0,.917.219,1.118,1.118,0,0,0,.2-.012,2.222,2.222,0,0,0,1.084-.409,2.264,2.264,0,0,0,.761-.894,2.061,2.061,0,0,0,.179-1.119,2.455,2.455,0,0,0-.45-1.13l-1.326-1.88a2.4,2.4,0,0,0-.912-.8,2.065,2.065,0,0,0-1.113-.208,2.381,2.381,0,0,0-1.851,1.3,2.059,2.059,0,0,0-.179,1.119,2.49,2.49,0,0,0,.444,1.125l1.327,1.88Z" transform="translate(-277.301 -209.17)" fill="#823224"></path>
      <path id="Path_1182" data-name="Path 1182" d="M388.5,218.821a2.426,2.426,0,0,0,.808.894,2.127,2.127,0,0,0,1.078.346h.081a2.163,2.163,0,0,0,1.056-.282,2.223,2.223,0,0,0,.854-.79,2.058,2.058,0,0,0,.306-1.09,2.478,2.478,0,0,0-.311-1.177l-1.967-3.628a.325.325,0,0,0-.185-.167.34.34,0,0,0-.254.034l-.266.144a.323.323,0,0,0-.167.184.319.319,0,0,0,.04.254l1.967,3.628a1.551,1.551,0,0,1,.208,1.1,1.256,1.256,0,0,1-1.6.865,1.6,1.6,0,0,1-.8-.767l-1.967-3.628a.321.321,0,0,0-.185-.167.325.325,0,0,0-.26.034l-.265.144a.322.322,0,0,0-.167.184.342.342,0,0,0,.034.254l1.967,3.628Z" transform="translate(-280.83 -206.241)" fill="#823224"></path>
      <path id="Path_1183" data-name="Path 1183" d="M399.985,215.265a.388.388,0,0,0,.2.133c.023,0,.047.006.075.006a.567.567,0,0,0,.156-.029l.155-.064a.418.418,0,0,0,.185-.138.372.372,0,0,0,.052-.23l-.231-6.339a.275.275,0,0,0-.4-.254l-.277.11a.416.416,0,0,0-.184.138.363.363,0,0,0-.052.23l.26,5.076-3.282-3.882a.409.409,0,0,0-.2-.132.365.365,0,0,0-.231.023l-.271.1a.3.3,0,0,0-.2.2.289.289,0,0,0,.075.266l4.159,4.787Z" transform="translate(-284.954 -204.19)" fill="#823224"></path>
      <path id="Path_1184" data-name="Path 1184" d="M408.77,210.977l-.594-2.221a1.525,1.525,0,0,1,.063-1.1,1.144,1.144,0,0,1,.773-.606,1.4,1.4,0,0,1,.369-.051,1.088,1.088,0,0,1,.612.184,1.52,1.52,0,0,1,.594.923l.594,2.221a1.551,1.551,0,0,1-.058,1.107,1.253,1.253,0,0,1-1.747.467,1.557,1.557,0,0,1-.6-.928Zm1.182,1.967a2.5,2.5,0,0,0,.611-.081,2.259,2.259,0,0,0,1.021-.571,2.076,2.076,0,0,0,.554-.986,2.494,2.494,0,0,0-.029-1.217l-.594-2.22a2.376,2.376,0,0,0-.577-1.062,2.024,2.024,0,0,0-.969-.577,2.348,2.348,0,0,0-2.186.583,2.027,2.027,0,0,0-.554.986,2.38,2.38,0,0,0,.029,1.205l.594,2.221a2.478,2.478,0,0,0,.577,1.073,2.079,2.079,0,0,0,.969.582,2.193,2.193,0,0,0,.554.075Z" transform="translate(-290.06 -203.224)" fill="#823224"></path>
      <path id="Path_1185" data-name="Path 1185" d="M419.825,210.835a.325.325,0,0,0,.046-.248l-.034-.19a.339.339,0,0,0-.127-.219.327.327,0,0,0-.248-.046l-.312.052-.825-4.862.312-.052a.312.312,0,0,0,.219-.127.324.324,0,0,0,.046-.248l-.035-.19a.326.326,0,0,0-.127-.219.3.3,0,0,0-.248-.046l-1.563.266a.314.314,0,0,0-.219.127.327.327,0,0,0-.046.248l.034.19a.317.317,0,0,0,.127.219.307.307,0,0,0,.248.046l.311-.052.825,4.857-.311.052a.313.313,0,0,0-.219.127.325.325,0,0,0-.047.248l.035.19a.3.3,0,0,0,.306.271.263.263,0,0,0,.069-.006l1.563-.265a.326.326,0,0,0,.219-.127Z" transform="translate(-294.298 -202.453)" fill="#823224"></path>
      <path id="Path_1186" data-name="Path 1186" d="M426.614,204.629a.851.851,0,0,1,.306.611l.011.179a.93.93,0,0,1-.213.7,1.018,1.018,0,0,1-.732.323l-1.212.092-.15-2.013,1.212-.092a1.05,1.05,0,0,1,.778.19Zm-2.422,5.635a.332.332,0,0,0,.214.075h.029l.3-.023a.321.321,0,0,0,.231-.1.334.334,0,0,0,.069-.242l-.19-2.573.975-.075,1.811,2.561a.415.415,0,0,0,.167.15.426.426,0,0,0,.231.035l.3-.023a.279.279,0,0,0,.248-.138.272.272,0,0,0-.058-.283l-1.747-2.491a1.849,1.849,0,0,0,.3-.156,1.779,1.779,0,0,0,.64-.7,1.8,1.8,0,0,0,.173-.923l-.012-.179a1.643,1.643,0,0,0-.306-.847,1.668,1.668,0,0,0-.738-.571,2.234,2.234,0,0,0-1.056-.15l-1.834.138a.342.342,0,0,0-.231.1.293.293,0,0,0-.069.248l.444,5.953a.308.308,0,0,0,.1.23Z" transform="translate(-297.413 -202.079)" fill="#823224"></path>
      <path id="Path_1187" data-name="Path 1187" d="M440.827,204.467a1.343,1.343,0,0,1,.986.484,1.456,1.456,0,0,1,.277,1.078l-.19,2.036a1.472,1.472,0,0,1-.473,1.015,1.4,1.4,0,0,1-1.062.294l-1.078-.1.462-4.909Zm-.248,5.762a2.479,2.479,0,0,0,.963-.184,2.083,2.083,0,0,0,.906-.727,2.32,2.32,0,0,0,.4-1.16l.19-2.036a2.377,2.377,0,0,0-.184-1.206,2.034,2.034,0,0,0-.756-.882,2.583,2.583,0,0,0-1.2-.4l-1.7-.168a.354.354,0,0,0-.242.058.339.339,0,0,0-.115.236l-.554,5.94a.31.31,0,0,0,.064.242.314.314,0,0,0,.231.11l1.7.156a2.442,2.442,0,0,0,.288.012Z" transform="translate(-303.954 -202.021)" fill="#823224"></path>
      <path id="Path_1188" data-name="Path 1188" d="M450.343,205.708l-.462-.081a.325.325,0,0,0-.248.046.312.312,0,0,0-.127.219l-.323,1.788a.279.279,0,0,0,.075.288.188.188,0,0,0,.133.046.408.408,0,0,0,.167-.046l.571-.266a.485.485,0,0,0,.168-.132.507.507,0,0,0,.086-.2l.231-1.286a.353.353,0,0,0-.04-.248.32.32,0,0,0-.225-.133Z" transform="translate(-308.816 -202.984)" fill="#823224"></path>
      <path id="Path_1189" data-name="Path 1189" d="M453.269,212.119a2.171,2.171,0,0,0,1.015.582,2.29,2.29,0,0,0,.617.087,2.206,2.206,0,0,0,.548-.069,2.093,2.093,0,0,0,.975-.577,2.434,2.434,0,0,0,.582-1.067l1.073-3.985a.3.3,0,0,0-.017-.248.317.317,0,0,0-.214-.15l-.288-.081a.359.359,0,0,0-.248.017.319.319,0,0,0-.15.214l-1.073,3.985a1.569,1.569,0,0,1-.606.934,1.143,1.143,0,0,1-.975.138,1.12,1.12,0,0,1-.778-.611,1.563,1.563,0,0,1-.047-1.108l1.079-3.985a.358.358,0,0,0-.018-.248.315.315,0,0,0-.213-.15l-.288-.075a.327.327,0,0,0-.248.018.3.3,0,0,0-.15.213l-1.073,3.985a2.379,2.379,0,0,0-.029,1.206,2.125,2.125,0,0,0,.542.992Z" transform="translate(-310.381 -203.023)" fill="#823224"></path>
      <path id="Path_1190" data-name="Path 1190" d="M461.509,214.864a.3.3,0,0,0,.19.173l.219.086a.34.34,0,0,0,.248.012.316.316,0,0,0,.173-.19l1.644-4.066.715,5.139a.379.379,0,0,0,.075.214.5.5,0,0,0,.184.127l.121.046a.336.336,0,0,0,.144.029.222.222,0,0,0,.1-.017.319.319,0,0,0,.173-.19l2.237-5.531a.338.338,0,0,0,.012-.248.316.316,0,0,0-.19-.173l-.219-.087a.3.3,0,0,0-.253-.006.364.364,0,0,0-.173.185l-1.661,4.1-.7-5.174a.394.394,0,0,0-.081-.219.509.509,0,0,0-.185-.127l-.121-.046a.339.339,0,0,0-.249-.012.318.318,0,0,0-.173.19l-2.243,5.531a.338.338,0,0,0-.012.248Z" transform="translate(-314.307 -204.435)" fill="#823224"></path>
      <path id="Path_1191" data-name="Path 1191" d="M476.391,222.747a2.319,2.319,0,0,0,1.108.369h.092a1.878,1.878,0,0,0,.969-.271,2.6,2.6,0,0,0,.854-.865l.7-1.136a.343.343,0,0,0,.058-.242.326.326,0,0,0-.161-.208l-1.182-.733a.328.328,0,0,0-.248-.051.312.312,0,0,0-.2.156l-.1.162a.354.354,0,0,0-.058.242.3.3,0,0,0,.162.2l.652.4-.432.692a1.571,1.571,0,0,1-.825.727,1.119,1.119,0,0,1-.958-.167,1.151,1.151,0,0,1-.56-.808,1.536,1.536,0,0,1,.271-1.079l1.211-1.955a1.547,1.547,0,0,1,.843-.721,1.172,1.172,0,0,1,.969.168,1.113,1.113,0,0,1,.484.53,1.169,1.169,0,0,1,.047.7.55.55,0,0,0,.023.242.373.373,0,0,0,.168.173l.236.121a.309.309,0,0,0,.271.029.3.3,0,0,0,.161-.213,2.11,2.11,0,0,0,.04-.888,2.008,2.008,0,0,0-.323-.8,2.173,2.173,0,0,0-.658-.617,2.206,2.206,0,0,0-1.108-.358H478.8a1.97,1.97,0,0,0-.992.265,2.454,2.454,0,0,0-.871.865l-1.211,1.956a2.466,2.466,0,0,0-.386,1.154,2.011,2.011,0,0,0,.242,1.1,2.285,2.285,0,0,0,.8.842Z" transform="translate(-320.497 -207.865)" fill="#823224"></path>
      <path id="Path_1192" data-name="Path 1192" d="M482.451,226.659a.357.357,0,0,0,.133.219l2.365,1.857a.349.349,0,0,0,.208.081h.034a.332.332,0,0,0,.219-.133l.121-.15a.349.349,0,0,0,.081-.236.322.322,0,0,0-.138-.225L483.6,226.6l1.275-1.621,1.851,1.459a.306.306,0,0,0,.242.075.332.332,0,0,0,.219-.133l.121-.15a.3.3,0,0,0,.075-.242.318.318,0,0,0-.132-.219l-1.852-1.459,1.246-1.586,1.869,1.471a.349.349,0,0,0,.208.081h.034a.357.357,0,0,0,.219-.133l.121-.15a.3.3,0,0,0-.058-.462l-2.365-1.857a.331.331,0,0,0-.214-.081h-.023a.324.324,0,0,0-.225.138l-3.685,4.695a.307.307,0,0,0-.075.242Z" transform="translate(-323.672 -210.117)" fill="#823224"></path>
      <path id="Path_1193" data-name="Path 1193" d="M492.649,231.947a1.091,1.091,0,0,1,.381.767,1.058,1.058,0,0,1-.34.756,1.128,1.128,0,0,1-.813.369h-.018a1.072,1.072,0,0,1-.784-.323,1.4,1.4,0,0,1-.386-.629,1.415,1.415,0,0,1,0-.726.349.349,0,0,0-.006-.266.3.3,0,0,0-.208-.15l-.219-.051a.343.343,0,0,0-.254.011.281.281,0,0,0-.15.208,2.1,2.1,0,0,0,0,1.194,2.426,2.426,0,0,0,.64,1,2.155,2.155,0,0,0,.929.542,1.915,1.915,0,0,0,.513.07,1.948,1.948,0,0,0,1.425-.623,1.888,1.888,0,0,0,.588-1.378,2.041,2.041,0,0,0-.686-1.413,1.147,1.147,0,0,1-.4-.779,1.007,1.007,0,0,1,.323-.738.985.985,0,0,1,.726-.323h.018a1.057,1.057,0,0,1,.749.323,1.42,1.42,0,0,1,.364.547,1.084,1.084,0,0,1,.029.606.372.372,0,0,0,.017.253.313.313,0,0,0,.2.15l.2.058a.378.378,0,0,0,.254-.005.3.3,0,0,0,.155-.2,1.719,1.719,0,0,0-.017-1.079,2.387,2.387,0,0,0-.605-.917,2.136,2.136,0,0,0-.9-.536,1.925,1.925,0,0,0-2.428,1.863,2.083,2.083,0,0,0,.7,1.419Z" transform="translate(-326.938 -213.235)" fill="#823224"></path>
      <path id="Path_1194" data-name="Path 1194" d="M501.338,236.252l-4.2,3.466a.321.321,0,0,0-.127.219.34.34,0,0,0,.081.242l.19.231a.324.324,0,0,0,.219.127h.029a.351.351,0,0,0,.214-.081l4.2-3.466.975,1.182a.324.324,0,0,0,.219.127.319.319,0,0,0,.242-.081l.15-.121a.309.309,0,0,0,.046-.461l-2.567-3.109a.349.349,0,0,0-.219-.127.327.327,0,0,0-.242.081l-.149.121a.345.345,0,0,0-.133.213.322.322,0,0,0,.086.249l.981,1.193Z" transform="translate(-330.171 -215.833)" fill="#823224"></path>
      <path id="Path_1195" data-name="Path 1195" d="M501.128,246.8a.314.314,0,0,0,.058.248l1.644,2.515a.318.318,0,0,0,.208.15h.058a.312.312,0,0,0,.19-.064l.162-.1a.355.355,0,0,0,.156-.2.332.332,0,0,0-.058-.254l-1.3-1.99,1.725-1.13,1.292,1.972a.319.319,0,0,0,.2.15.284.284,0,0,0,.248-.058l.162-.1a.317.317,0,0,0,.15-.208.31.31,0,0,0-.058-.248l-1.292-1.972,1.69-1.108,1.3,1.99a.334.334,0,0,0,.208.15.31.31,0,0,0,.248-.058l.162-.1a.3.3,0,0,0,.092-.45l-1.643-2.515a.352.352,0,0,0-.2-.156.338.338,0,0,0-.254.058l-4.989,3.27a.323.323,0,0,0-.15.2Z" transform="translate(-332.008 -219.783)" fill="#823224"></path>
      <path id="Path_1196" data-name="Path 1196" d="M353.531,341.857l4.626-2.884a.3.3,0,0,0,.1-.45l-.156-.253a.32.32,0,0,0-.2-.156.328.328,0,0,0-.254.052l-5.064,3.155a.3.3,0,0,0-.1.45l1.794,2.878a.312.312,0,0,0,.2.156c.023,0,.047.006.069.006a.331.331,0,0,0,.185-.058l.162-.1a.333.333,0,0,0,.156-.2A.329.329,0,0,0,355,344.2l-1.459-2.347Z" transform="translate(-265.62 -262.135)" fill="#823224"></path>
      <path id="Path_1197" data-name="Path 1197" d="M364.785,345.8a.345.345,0,0,0-.242.069l-1.465,1.079a.276.276,0,0,0-.144.259c.012.1.081.168.214.208l.6.2a.479.479,0,0,0,.15.023h.064a.39.39,0,0,0,.2-.086l1.05-.773a.336.336,0,0,0,.144-.208.3.3,0,0,0-.069-.248l-.277-.381a.306.306,0,0,0-.214-.138Z" transform="translate(-270.31 -265.57)" fill="#823224"></path>
      <path id="Path_1198" data-name="Path 1198" d="M361.789,353.021l1.563-1.344,1.534,1.788a.315.315,0,0,0,.225.121h.023a.317.317,0,0,0,.213-.086l.15-.127a.318.318,0,0,0,.121-.225.344.344,0,0,0-.087-.236L364,351.124l1.534-1.315,1.552,1.806a.317.317,0,0,0,.225.121.3.3,0,0,0,.236-.086l.145-.127a.349.349,0,0,0,.127-.219.333.333,0,0,0-.092-.242l-1.961-2.278a.348.348,0,0,0-.219-.127.356.356,0,0,0-.242.092l-4.528,3.887a.318.318,0,0,0-.121.225.327.327,0,0,0,.087.236l1.961,2.278a.315.315,0,0,0,.225.121h.023a.317.317,0,0,0,.214-.086l.144-.127a.347.347,0,0,0,.127-.219.311.311,0,0,0-.092-.242l-1.552-1.805Z" transform="translate(-269.292 -266.846)" fill="#823224"></path>
      <path id="Path_1199" data-name="Path 1199" d="M374.336,357.7a.269.269,0,0,0-.1-.265l-.2-.19a.49.49,0,0,0-.2-.116.431.431,0,0,0-.225.012l-2.509.71.56-2.538a.5.5,0,0,0,0-.225.464.464,0,0,0-.127-.2l-.219-.208a.243.243,0,0,0-.438.144l-.71,3.294-3.282.928c-.127.035-.2.093-.219.185a.265.265,0,0,0,.1.265l.219.208a.485.485,0,0,0,.2.116.436.436,0,0,0,.225-.012l2.543-.727-.56,2.584a.5.5,0,0,0,0,.225.467.467,0,0,0,.127.2l.2.19a.315.315,0,0,0,.208.1.114.114,0,0,0,.064-.012.281.281,0,0,0,.173-.231l.727-3.328,3.23-.923a.271.271,0,0,0,.219-.184Z" transform="translate(-271.971 -269.493)" fill="#823224"></path>
      <path id="Path_1200" data-name="Path 1200" d="M378.243,363.561a1.511,1.511,0,0,1,.9-.623,1.13,1.13,0,0,1,.952.242,1.144,1.144,0,0,1,.444.634,1.3,1.3,0,0,1-.127.819.391.391,0,0,0-.035.248.325.325,0,0,0,.15.2l.254.162a.324.324,0,0,0,.254.058.331.331,0,0,0,.2-.173,1.969,1.969,0,0,0-.628-2.613,2.286,2.286,0,0,0-1.073-.45,2.028,2.028,0,0,0-1.119.167,2.4,2.4,0,0,0-.934.761l-1.378,1.817a2.453,2.453,0,0,0-.49,1.113,2.082,2.082,0,0,0,.138,1.125,2.2,2.2,0,0,0,.721.911,2.175,2.175,0,0,0,1.309.484h.023a1.965,1.965,0,0,0,1.286-.519.375.375,0,0,0,.144-.26.325.325,0,0,0-.116-.248l-.225-.2a.31.31,0,0,0-.214-.092h-.017a.382.382,0,0,0-.231.1,1.2,1.2,0,0,1-.732.329h-.034a1.139,1.139,0,0,1-.7-.266,1.125,1.125,0,0,1-.484-.854,1.571,1.571,0,0,1,.369-1.049l1.379-1.817Z" transform="translate(-275.959 -272.823)" fill="#823224"></path>
      <path id="Path_1201" data-name="Path 1201" d="M387.9,370.706a.331.331,0,0,0-.156-.2l-2.019-1.217,1.044-1.73,2.041,1.228a.3.3,0,0,0,.248.046.355.355,0,0,0,.2-.156l.1-.162a.333.333,0,0,0,.052-.248.321.321,0,0,0-.162-.2l-2.572-1.546a.3.3,0,0,0-.45.11l-3.074,5.11a.306.306,0,0,0-.046.248.357.357,0,0,0,.156.2l2.573,1.546a.376.376,0,0,0,.179.058.269.269,0,0,0,.069-.006.349.349,0,0,0,.2-.156l.1-.162a.333.333,0,0,0,.052-.248.321.321,0,0,0-.161-.2l-2.036-1.228,1.062-1.765,2.019,1.217a.321.321,0,0,0,.248.046.328.328,0,0,0,.2-.156l.1-.162a.306.306,0,0,0,.047-.248Z" transform="translate(-279.315 -274.795)" fill="#823224"></path>
      <path id="Path_1202" data-name="Path 1202" d="M392.656,376.278l2.307-4.931a.346.346,0,0,0,.029-.248.321.321,0,0,0-.184-.184l-.271-.127a.316.316,0,0,0-.248-.023.32.32,0,0,0-.185.184l-2.526,5.4a.354.354,0,0,0-.029.249.3.3,0,0,0,.185.184l3.068,1.436a.4.4,0,0,0,.156.04.268.268,0,0,0,.1-.017.3.3,0,0,0,.179-.179l.081-.173a.33.33,0,0,0,.023-.254.3.3,0,0,0-.179-.179l-2.5-1.171Z" transform="translate(-283.082 -276.71)" fill="#823224"></path>
      <path id="Path_1203" data-name="Path 1203" d="M404.173,380.831l-2.613-.906,1.782-5.151a.311.311,0,0,0,0-.248.3.3,0,0,0-.2-.162l-.283-.1a.293.293,0,0,0-.41.2L400.5,380.11a.306.306,0,0,0,0,.248.317.317,0,0,0,.2.167l3.2,1.107a.344.344,0,0,0,.127.023.318.318,0,0,0,.127-.029.3.3,0,0,0,.161-.2l.064-.185a.347.347,0,0,0,0-.254.325.325,0,0,0-.2-.162Z" transform="translate(-287.071 -278.269)" fill="#823224"></path>
      <path id="Path_1204" data-name="Path 1204" d="M414.512,377.606l-2.924-.681a.326.326,0,0,0-.248.029.323.323,0,0,0-.144.219l-1.35,5.814a.3.3,0,0,0,.035.248.312.312,0,0,0,.213.138l2.93.68a.473.473,0,0,0,.092.012.321.321,0,0,0,.162-.041.331.331,0,0,0,.138-.213l.047-.19a.33.33,0,0,0-.029-.248.305.305,0,0,0-.219-.145l-2.319-.536.467-2.007,2.3.536a.317.317,0,0,0,.253-.034.337.337,0,0,0,.138-.208l.047-.19a.3.3,0,0,0-.035-.248.312.312,0,0,0-.213-.138l-2.3-.536.456-1.967,2.319.536a.3.3,0,0,0,.248-.034.314.314,0,0,0,.138-.214l.046-.19a.3.3,0,0,0-.248-.392Z" transform="translate(-291.251 -279.462)" fill="#823224"></path>
      <path id="Path_1205" data-name="Path 1205" d="M424.081,379.137l-.231-.029a.306.306,0,0,0-.248.064.329.329,0,0,0-.115.225l-.514,4.4-2.047-4.8a.422.422,0,0,0-.132-.19.472.472,0,0,0-.214-.075l-.127-.018a.309.309,0,0,0-.364.288l-.692,5.929a.3.3,0,0,0,.283.364l.236.029a.316.316,0,0,0,.242-.058.358.358,0,0,0,.121-.23l.508-4.355,2.054,4.764a.329.329,0,0,0,.132.185.468.468,0,0,0,.214.075l.127.018h.052a.3.3,0,0,0,.191-.058.347.347,0,0,0,.121-.23l.692-5.924a.328.328,0,0,0-.057-.248A.332.332,0,0,0,424.081,379.137Z" transform="translate(-295.519 -280.261)" fill="#823224"></path>
      <path id="Path_1206" data-name="Path 1206" d="M432.742,379.473h-.04a2.264,2.264,0,0,0-1.09.271,2.083,2.083,0,0,0-.8.8,2.368,2.368,0,0,0-.3,1.165l-.034,2.278a2.426,2.426,0,0,0,.265,1.188,2.133,2.133,0,0,0,.773.825,2.224,2.224,0,0,0,1.119.306h.046a2.231,2.231,0,0,0,1.3-.386,1.972,1.972,0,0,0,.75-1.194.4.4,0,0,0-.035-.294.307.307,0,0,0-.236-.133l-.3-.029a.309.309,0,0,0-.242.064.424.424,0,0,0-.127.219,1.2,1.2,0,0,1-.4.7,1.112,1.112,0,0,1-.715.219h-.029a1.134,1.134,0,0,1-.9-.4,1.557,1.557,0,0,1-.323-1.061l.035-2.278a1.518,1.518,0,0,1,.358-1.038,1.154,1.154,0,0,1,.882-.369h.029a1.057,1.057,0,0,1,.732.254,1.241,1.241,0,0,1,.381.732.429.429,0,0,0,.121.219.3.3,0,0,0,.236.069l.3-.017a.319.319,0,0,0,.242-.1.34.34,0,0,0,.058-.26,2.077,2.077,0,0,0-.681-1.269,2.112,2.112,0,0,0-1.373-.473Z" transform="translate(-300.467 -280.602)" fill="#823224"></path>
      <path id="Path_1207" data-name="Path 1207" d="M443.975,384.75a.333.333,0,0,0-.253-.064l-2.365.242-.213-2.053,2.348-.242a.333.333,0,0,0,.231-.115.319.319,0,0,0,.063-.242l-.017-.19a.305.305,0,0,0-.116-.225.309.309,0,0,0-.242-.064l-2.348.243-.208-2.007,2.365-.242a.332.332,0,0,0,.231-.115.317.317,0,0,0,.063-.243l-.017-.19a.344.344,0,0,0-.1-.225.332.332,0,0,0-.254-.064l-2.987.306a.347.347,0,0,0-.225.1.323.323,0,0,0-.063.253l.611,5.935a.332.332,0,0,0,.116.231.3.3,0,0,0,.2.069h.047l2.993-.306a.31.31,0,0,0,.288-.364l-.018-.19a.374.374,0,0,0-.1-.231Z" transform="translate(-304.657 -280.372)" fill="#823224"></path>
      <path id="Path_1208" data-name="Path 1208" d="M455.664,377.677a1.439,1.439,0,0,1,.634.911l.536,1.973a1.471,1.471,0,0,1-.086,1.119,1.352,1.352,0,0,1-.888.646l-1.049.283-1.286-4.759,1.049-.282a1.381,1.381,0,0,1,1.1.11Zm1.557.663a2.392,2.392,0,0,0-.594-1.067,2.044,2.044,0,0,0-1.015-.565,2.549,2.549,0,0,0-1.263.04l-1.649.444a.344.344,0,0,0-.208.145.3.3,0,0,0-.023.26l1.557,5.762a.33.33,0,0,0,.15.208.263.263,0,0,0,.15.04.222.222,0,0,0,.1-.017l1.649-.444a2.6,2.6,0,0,0,1.113-.6,2.114,2.114,0,0,0,.594-1,2.347,2.347,0,0,0-.029-1.228l-.531-1.973Z" transform="translate(-310.278 -279.343)" fill="#823224"></path>
      <path id="Path_1209" data-name="Path 1209" d="M463.181,375.557a.36.36,0,0,0-.156-.2.334.334,0,0,0-.26,0l-.444.161a.3.3,0,0,0-.19.416l.623,1.707a.286.286,0,0,0,.213.214H463a.266.266,0,0,0,.225-.15l.358-.519a.555.555,0,0,0,.081-.2.461.461,0,0,0-.029-.213l-.444-1.229Z" transform="translate(-314.589 -278.757)" fill="#823224"></path>
      <path id="Path_1210" data-name="Path 1210" d="M469.539,370.826a.329.329,0,0,0-.173-.179.343.343,0,0,0-.259.017l-.271.127a.329.329,0,0,0-.179.173.318.318,0,0,0,.017.26l1.73,3.749a1.568,1.568,0,0,1,.133,1.107,1.133,1.133,0,0,1-.658.733,1.152,1.152,0,0,1-.992.023,1.593,1.593,0,0,1-.75-.819l-1.73-3.749a.329.329,0,0,0-.173-.179.343.343,0,0,0-.259.017l-.271.127a.331.331,0,0,0-.179.173.324.324,0,0,0,.023.26l1.73,3.749a2.378,2.378,0,0,0,.75.946,2.106,2.106,0,0,0,1.05.415c.069.006.139.012.208.012a2.242,2.242,0,0,0,.94-.219,2.217,2.217,0,0,0,.9-.733,2.018,2.018,0,0,0,.375-1.067,2.411,2.411,0,0,0-.236-1.194l-1.73-3.749Z" transform="translate(-316.107 -276.656)" fill="#823224"></path>
      <path id="Path_1211" data-name="Path 1211" d="M478.161,365.84a.34.34,0,0,0-.2-.156.323.323,0,0,0-.254.051l-.2.121a.334.334,0,0,0-.156.2.35.35,0,0,0,.047.248l2.318,3.772-4.579-2.509a.37.37,0,0,0-.2-.069h-.017a.416.416,0,0,0-.213.075l-.11.069a.3.3,0,0,0-.1.45l3.12,5.087a.323.323,0,0,0,.2.156.311.311,0,0,0,.069.012.376.376,0,0,0,.19-.058l.2-.121a.3.3,0,0,0,.1-.45l-2.3-3.737,4.557,2.474a.361.361,0,0,0,.219.064.42.42,0,0,0,.214-.075l.11-.069a.3.3,0,0,0,.1-.45Z" transform="translate(-320.092 -274.445)" fill="#823224"></path>
      <path id="Path_1212" data-name="Path 1212" d="M492.379,361.259a1.9,1.9,0,0,0-1.321-.71,2.018,2.018,0,0,0-1.465.566,1.188,1.188,0,0,1-.767.334h-.046a1,1,0,0,1-.71-.386.983.983,0,0,1-.254-.773,1.084,1.084,0,0,1,.386-.721,1.391,1.391,0,0,1,.577-.312,1.042,1.042,0,0,1,.606.029.343.343,0,0,0,.254,0,.309.309,0,0,0,.167-.19l.075-.19a.354.354,0,0,0,.012-.254.287.287,0,0,0-.19-.173,1.744,1.744,0,0,0-1.078-.081,2.391,2.391,0,0,0-.969.525,2.133,2.133,0,0,0-.611.848,1.8,1.8,0,0,0-.1.986,1.983,1.983,0,0,0,1.747,1.6,2.09,2.09,0,0,0,1.477-.577,1.146,1.146,0,0,1,.738-.317h.063a1.054,1.054,0,0,1,.727.4,1.134,1.134,0,0,1,.294.842,1.113,1.113,0,0,1-.392.773,1.339,1.339,0,0,1-1.378.265.346.346,0,0,0-.26-.017.289.289,0,0,0-.167.2l-.07.214a.326.326,0,0,0-.006.254.3.3,0,0,0,.19.167,2.334,2.334,0,0,0,.79.15,1.8,1.8,0,0,0,.4-.046,2.412,2.412,0,0,0,1.05-.554,2.137,2.137,0,0,0,.623-.876,1.873,1.873,0,0,0,.086-1.021,1.973,1.973,0,0,0-.473-.957Z" transform="translate(-325.665 -271.173)" fill="#823224"></path>
      <path id="Path_1213" data-name="Path 1213" d="M498.975,355.733a1.252,1.252,0,0,1-1.2,1.321h-.035a1.562,1.562,0,0,1-1-.467l-1.684-1.569a1.527,1.527,0,0,1-.531-.957,1.147,1.147,0,0,1,.334-.923,1.164,1.164,0,0,1,.865-.409h.035a1.561,1.561,0,0,1,1,.467l1.684,1.569A1.534,1.534,0,0,1,498.975,355.733Zm.121-1.667-1.684-1.569a2.431,2.431,0,0,0-1.049-.594,2.084,2.084,0,0,0-1.13.023,2.291,2.291,0,0,0-.986.634,2.224,2.224,0,0,0-.553,1.021,2.041,2.041,0,0,0,.058,1.13,2.408,2.408,0,0,0,.663,1l1.684,1.569a2.458,2.458,0,0,0,1.061.6,2.064,2.064,0,0,0,.525.069,1.946,1.946,0,0,0,.606-.092,2.224,2.224,0,0,0,.981-.628,2.273,2.273,0,0,0,.565-1.027,2.048,2.048,0,0,0-.058-1.131,2.455,2.455,0,0,0-.675-1.015Z" transform="translate(-328.667 -268.266)" fill="#823224"></path>
      <path id="Path_1214" data-name="Path 1214" d="M504.719,349.915a.311.311,0,0,0-.242-.075.356.356,0,0,0-.219.132l-.2.248-3.893-3.022.19-.248a.3.3,0,0,0,.075-.242.33.33,0,0,0-.133-.214l-.156-.121a.328.328,0,0,0-.242-.075.359.359,0,0,0-.219.132l-.969,1.252a.3.3,0,0,0-.075.242.345.345,0,0,0,.133.219l.15.115a.3.3,0,0,0,.242.075.329.329,0,0,0,.213-.133l.2-.248,3.893,3.028-.19.248a.3.3,0,0,0-.075.242.316.316,0,0,0,.132.214l.156.121a.343.343,0,0,0,.208.075h.034a.332.332,0,0,0,.214-.132l.975-1.252a.3.3,0,0,0,.075-.242.355.355,0,0,0-.133-.219l-.149-.116Z" transform="translate(-330.899 -265.793)" fill="#823224"></path>
      <path id="Path_1215" data-name="Path 1215" d="M509.831,341.439l-5.035-3.2a.345.345,0,0,0-.242-.058.336.336,0,0,0-.208.156l-.127.2a.327.327,0,0,0-.052.248.312.312,0,0,0,.156.2l3.737,2.376-5.22-.248a.317.317,0,0,0-.225.04.538.538,0,0,0-.162.162l-.069.11a.3.3,0,0,0,.1.449l5.035,3.2a.36.36,0,0,0,.19.063h.051a.316.316,0,0,0,.208-.156l.127-.2a.321.321,0,0,0,.058-.242.317.317,0,0,0-.155-.208l-3.7-2.354,5.179.225a.325.325,0,0,0,.225-.04.538.538,0,0,0,.162-.162l.069-.11a.3.3,0,0,0-.1-.45Z" transform="translate(-332.544 -262.167)" fill="#823224"></path>
      <path id="Path_1216" data-name="Path 1216" d="M434.768,294.666a.734.734,0,0,0-.012-.162.414.414,0,0,0-.029-.092.817.817,0,0,0-.052-.156c-.012-.023-.04-.04-.058-.058s-.029-.029-.04-.046a.753.753,0,0,0-.156-.15c-.017-.012-.029-.029-.046-.04a2.511,2.511,0,0,1-.813-.992,3.052,3.052,0,0,1-.311-1.171.833.833,0,0,0-1.632-.219,9.071,9.071,0,0,1-.41,1.425,2.2,2.2,0,0,1-.721.952.842.842,0,0,0,0,1.43,2.468,2.468,0,0,1,.814.992,3.044,3.044,0,0,1,.311,1.171.833.833,0,0,0,1.632.219,9.077,9.077,0,0,1,.41-1.425,2.2,2.2,0,0,1,.721-.952.229.229,0,0,0,.04-.04.892.892,0,0,0,.168-.162c.006-.012.017-.017.029-.029s.046-.04.058-.064a.646.646,0,0,0,.057-.167c.006-.023.017-.046.023-.069a1.047,1.047,0,0,0,.017-.19Z" transform="translate(-300.295 -241.095)" fill="#823224"></path>
      <path id="Path_1217" data-name="Path 1217" d="M453.1,268.559a4.447,4.447,0,0,0,1.592,2.191,4.208,4.208,0,0,0-1.4,2.047,4.449,4.449,0,0,0-1.591-2.191,4.211,4.211,0,0,0,1.4-2.047m-.242,5.814c.006.2.663.023.7-.144.306-1.293.646-2.723,1.823-3.5a.181.181,0,0,0,.063-.075c.023-.034.029-.069-.011-.1a4.535,4.535,0,0,1-1.9-3.57c-.006-.2-.664-.023-.7.144-.305,1.292-.646,2.722-1.822,3.507-.04.029-.121.127-.052.173a4.558,4.558,0,0,1,1.9,3.57Z" transform="translate(-309.601 -230.342)" fill="#823224"></path>
      <path id="Path_1218" data-name="Path 1218" d="M412.268,320.458a4.453,4.453,0,0,0-1.592-2.191,4.207,4.207,0,0,0,1.4-2.047,4.453,4.453,0,0,0,1.592,2.191,4.2,4.2,0,0,0-1.4,2.048m2.145-2.243a4.538,4.538,0,0,1-1.9-3.57c-.006-.2-.663-.023-.7.144-.306,1.292-.646,2.722-1.823,3.507-.04.029-.121.127-.052.173a4.561,4.561,0,0,1,1.9,3.57c.005.2.663.023.7-.144.306-1.292.646-2.722,1.823-3.507a.185.185,0,0,0,.063-.075c.023-.034.029-.069-.012-.1Z" transform="translate(-291.285 -251.621)" fill="#823224"></path>
    </g>
  </g>
</svg>